<?xml version="1.0" standalone="no"?><svg xmlns="http://www.w3.org/2000/svg" viewBox="0 0 1440 320"><path fill="#1818FF" fill-opacity="0.75" d="M0,160L26.7,154.7C53.3,149,107,139,160,117.3C213.3,96,267,64,320,90.7C373.3,117,427,203,480,208C533.3,213,587,139,640,128C693.3,117,747,171,800,186.7C853.3,203,907,181,960,170.7C1013.3,160,1067,160,1120,176C1173.3,192,1227,224,1280,224C1333.3,224,1387,192,1413,176L1440,160L1440,320L1413.3,320C1386.7,320,1333,320,1280,320C1226.7,320,1173,320,1120,320C1066.7,320,1013,320,960,320C906.7,320,853,320,800,320C746.7,320,693,320,640,320C586.7,320,533,320,480,320C426.7,320,373,320,320,320C266.7,320,213,320,160,320C106.7,320,53,320,27,320L0,320Z"></path></svg>